<svg width="411" height="823" viewBox="0 0 411 823" fill="none" xmlns="http://www.w3.org/2000/svg">
<g clip-path="url(#clip0)">
<rect width="411" height="823" fill="white"/>
<g clip-path="url(#clip1)">
<path d="M415 572C369.849 572.485 290 720.671 290 829H415V572Z" fill="#93BEFF"/>
<path d="M-2 329.04C8.77089 371.818 18.6907 375.843 24.8987 375.843C56.9568 375.843 78.2896 185 123.782 185C163.625 185 174.122 311.986 177.002 333.11C179.882 354.234 191.059 487.712 198.658 516.761C206.256 545.81 233.303 623.366 245.244 727.908C248.284 754.718 251 803.177 251 826H-2V329.04Z" fill="#9DEEFF"/>
<path d="M338.84 428.664C336.504 429.397 332.943 441.259 332.523 442.453C332.279 443.123 332.035 443.822 331.791 444.575L333.341 449.358L330.776 447.792C326.48 462.348 324.694 481.225 325.99 499.044C326.158 501.351 326.361 503.469 326.558 505.521C326.871 508.771 327.166 511.843 327.117 513.939C327.032 517.828 325.67 522.855 324.227 528.177C322.167 535.781 319.59 545.246 319.246 557.342C318.982 566.299 320.024 574.258 320.862 580.651C321.435 585.002 321.975 589.139 321.906 592.057C321.833 595.26 320.967 599.494 320.049 603.976C319.427 607.015 318.721 610.459 318.14 614.164C315.809 629.065 315.892 646.071 318.367 660.825L329.77 648.94C328.534 641.175 328.494 633.143 329.653 625.357C330.009 623.087 330.517 620.604 331.057 617.993C332.377 611.544 334.02 603.517 334.244 593.861C334.449 585.129 333.47 577.679 332.609 571.102C332.03 566.687 331.484 562.52 331.569 559.615C331.686 555.702 333.034 550.715 334.469 545.43C336.321 538.596 338.572 530.282 339.267 519.923C337.031 522.266 333.224 526.282 332.702 527.313C332.148 528.398 336.997 518.464 339.479 513.38C339.479 507.69 338.991 502.579 338.576 498.368C338.413 496.651 338.257 495.021 338.149 493.565C337.417 483.508 338.593 472.379 341.215 464.517C341.395 463.978 341.6 463.389 341.82 462.766C342.796 460.012 343.992 456.584 344.866 451.862C345.091 450.655 345.279 449.444 345.432 448.23C346.777 437.704 343.233 427.285 338.84 428.664Z" fill="#769AD0"/>
<path d="M361.163 476.054C359.196 474.943 354.939 481.894 354.461 482.55C354.163 482.959 353.855 483.38 353.531 483.852C351.498 486.815 349.672 490.58 348.11 494.928L350.026 506.679L346.975 498.338C344.734 505.628 343.187 514.236 342.562 523.34C342.428 525.318 342.342 527.172 342.259 528.966C342.13 531.811 342.015 534.496 341.723 536.149C341.198 539.218 339.511 542.271 337.727 545.504C335.176 550.123 332.001 555.88 330.295 565.348C329.033 572.377 328.938 579.533 328.862 585.29C328.811 589.219 328.762 592.934 328.374 595.234C327.937 597.757 326.744 600.532 325.48 603.471C324.623 605.479 323.651 607.721 322.748 610.282C319.124 620.577 317.196 634.326 317.459 648.006L328.03 646.747C327.898 639.933 328.899 632.807 330.715 627.669C331.269 626.1 331.967 624.473 332.709 622.749C334.527 618.522 336.792 613.26 338.105 605.649C339.294 598.768 339.382 592.061 339.46 586.14C339.511 582.164 339.56 578.412 339.97 576.136C340.522 573.07 342.196 570.041 343.968 566.831C346.567 562.125 349.801 556.268 351.473 546.508C351.579 545.894 351.675 545.283 351.761 544.674H347.138L352.323 539.737C352.567 536.936 352.686 534.278 352.794 531.942C352.862 530.443 352.928 529.023 353.013 527.768C353.604 519.136 355.857 511.033 358.888 506.615C359.096 506.314 359.332 505.993 359.581 505.651C360.682 504.139 362.056 502.257 363.313 499.091C363.635 498.281 363.926 497.441 364.194 496.584C364.287 496.276 364.372 495.965 364.455 495.651L360.57 493.16L365.239 490.074C365.471 483.886 363.872 477.604 361.163 476.054Z" fill="#1E5AB3"/>
<path d="M366.344 538.957C364.934 537.354 361.297 540.935 360.894 541.243C360.65 541.434 360.389 541.635 360.113 541.866C355.266 545.936 351.258 555.451 349.394 567.323C349.169 568.762 348.989 570.125 348.815 571.443C348.539 573.532 348.281 575.506 347.963 576.641C347.375 578.743 345.918 580.386 344.373 582.127C342.176 584.617 339.416 587.713 337.539 594.176C336.153 598.966 335.633 604.321 335.218 608.625C334.932 611.564 334.664 614.338 334.222 615.915C333.734 617.645 332.665 619.262 331.537 620.992C330.657 622.285 329.83 623.642 329.058 625.059C325.687 631.398 323.378 640.997 322.712 651.393L330.744 654.546C331.071 649.368 332.27 644.394 333.946 641.235C334.513 640.218 335.117 639.24 335.755 638.306C337.388 635.829 339.416 632.747 340.88 627.532C342.203 622.813 342.689 617.799 343.116 613.374C343.404 610.402 343.675 607.597 344.127 606.044C344.732 603.953 346.179 602.319 347.714 600.592C349.962 598.059 352.764 594.902 354.631 588.208C355.064 586.631 355.422 585.018 355.705 583.379L352.889 580.681L356.394 578.83C356.442 578.465 356.489 578.107 356.535 577.762C356.679 576.658 356.818 575.617 356.96 574.703C357.936 568.438 360.133 563.213 362.703 561.068C362.879 560.92 363.074 560.77 363.284 560.606C364.516 559.752 365.611 558.566 366.501 557.118C366.798 556.627 367.071 556.11 367.321 555.572C369.539 550.849 368.998 541.963 366.344 538.957Z" fill="#5783C6"/>
<path d="M289.32 639.598C289.32 639.598 268.171 594.323 245.387 626.083C245.387 626.083 245.387 568.645 228.576 562.564C211.764 556.482 196.846 589.594 200.651 625.407C200.651 625.407 165.676 608.514 159.159 649.733L289.298 652.437L289.32 639.598Z" fill="#1E5AB3"/>
<path d="M347.119 660.299C333.985 597.921 309.844 626.21 309.844 626.21C309.844 626.21 305.695 568.766 274.913 585.377C274.913 585.377 261.948 594.802 260.149 634.293C260.149 634.293 242.141 618.137 238.719 662.568L347.119 660.299Z" fill="#7A9DD2"/>
<path d="M122.014 258.904C122.014 258.904 119.312 262.727 118.502 268.082C117.808 272.677 114.721 271.871 112.79 278.016C110.645 284.837 107.594 295.038 114.589 301.92C118.934 306.194 125.853 309.484 127.42 306.606C128.987 303.727 132.728 304.899 131.894 274.568C131.894 274.568 121.665 263.928 121.562 263.858C121.46 263.788 122.014 258.904 122.014 258.904Z" fill="#141414"/>
<path d="M131.894 271.83C131.894 280.489 129.077 287.508 125.602 287.508C122.126 287.508 119.309 280.479 119.309 271.83C119.309 263.182 122.126 256.15 125.602 256.15C129.077 256.15 131.894 263.168 131.894 271.83Z" fill="#141414"/>
<path d="M148.762 319.211L148.303 319.746C146.35 320.914 135.199 327.534 134.684 326.688C134.12 325.761 131.598 312.798 131.598 312.798L128.738 324.405C128.738 324.405 131.323 336.612 133.004 338.543C134.647 340.427 146.204 329.964 149.46 325.034L149.789 324.669C150.106 324.837 150.936 325.131 150.936 325.131C154.261 326.069 153.916 326.119 153.943 325.801C153.97 325.483 152.63 324.034 152.708 323.722C152.786 323.411 154.741 323.722 154.646 323.331C154.551 322.939 152.755 322.022 152.789 321.734C152.823 321.446 154.707 321.838 154.7 321.148C154.693 320.459 152.628 320.221 152.703 319.679C152.779 319.137 154.9 319.528 154.856 318.899C154.819 318.37 152.452 317.775 151.7 317.597C151.603 317.577 151.549 317.263 151.605 317.062C152.474 313.862 152.472 313.467 152.315 313.273C152.203 313.132 151.112 315.191 150.048 316.955L148.762 319.211Z" fill="#F7C7A6"/>
<path d="M165.429 373.736H98.268C94.2065 373.736 90.9141 378.251 90.9141 383.821V649.103C90.9141 654.673 94.2065 659.188 98.268 659.188H165.429C169.491 659.188 172.783 654.673 172.783 649.103V383.821C172.783 378.251 169.491 373.736 165.429 373.736Z" fill="#5783C6"/>
<path d="M166.755 387.375H96.9427V630.792H166.755V387.375Z" fill="#F2F5FA"/>
<path d="M121.357 364.887H139.367C141.992 364.887 144.508 366.316 146.364 368.861C148.219 371.406 149.262 374.857 149.262 378.456V393.644H111.463V378.456C111.463 374.857 112.505 371.406 114.361 368.861C116.216 366.316 118.733 364.887 121.357 364.887V364.887Z" fill="#B2CCF4"/>
<path d="M138.772 415.396H102.051V422.191H138.772V415.396Z" fill="#E0E8F4"/>
<path d="M138.772 440.335H102.051V447.129H138.772V440.335Z" fill="#E0E8F4"/>
<path d="M138.772 465.273H102.051V472.068H138.772V465.273Z" fill="#E0E8F4"/>
<path d="M138.772 490.212H102.051V497.006H138.772V490.212Z" fill="#E0E8F4"/>
<path d="M138.772 515.15H102.051V521.945H138.772V515.15Z" fill="#E0E8F4"/>
<path d="M138.772 540.092H102.051V546.886H138.772V540.092Z" fill="#E0E8F4"/>
<path d="M138.772 565.03H102.051V571.825H138.772V565.03Z" fill="#E0E8F4"/>
<path d="M138.772 589.969H102.051V596.763H138.772V589.969Z" fill="#E0E8F4"/>
<path d="M167.89 415.396H147.06V465.216H167.89V415.396Z" fill="#E0E8F4"/>
<path d="M167.89 481.168H147.06V530.988H167.89V481.168Z" fill="#E0E8F4"/>
<path d="M167.89 546.94H147.06V596.76H167.89V546.94Z" fill="#E0E8F4"/>
<path d="M144.237 426.381L144.073 436.205L140.649 432.925L141.105 425.853L144.237 426.381Z" fill="#F7C7A6"/>
<path d="M147.08 448.354L139.131 441.764C138.886 441.563 138.752 440.9 138.835 440.288C138.916 439.675 139.182 439.344 139.428 439.548L147.375 446.142C147.619 446.346 147.754 447.009 147.671 447.621C147.59 448.23 147.324 448.558 147.08 448.354Z" fill="#1E5AB3"/>
<path d="M140.285 432.781L139.17 438.705C139.033 439.434 139.111 440.265 139.336 440.452L147.121 446.908C147.324 447.076 147.566 446.928 147.751 446.426C147.937 445.924 148.085 445.014 147.9 443.494C147.536 440.482 145.367 438.015 144.507 435.03C144.495 434.977 144.47 434.931 144.437 434.899L140.854 431.927C140.651 431.75 140.409 432.121 140.285 432.781Z" fill="#6890CC"/>
<path d="M143.453 438.059C143.409 437.882 143.417 437.689 143.475 437.52C143.741 436.804 144.493 435.144 145.408 436.372C145.437 436.443 145.455 436.522 145.46 436.603C145.466 436.685 145.459 436.766 145.44 436.844V436.844C145.406 437.021 145.337 437.102 145.286 437.031C144.464 435.94 143.822 437.413 143.597 438.035C143.551 438.156 143.49 438.169 143.453 438.059Z" fill="white"/>
<path d="M144.156 439.525C144.112 439.347 144.12 439.153 144.178 438.983C144.444 438.266 145.196 436.606 146.111 437.835C146.14 437.906 146.158 437.985 146.163 438.066C146.169 438.147 146.162 438.229 146.143 438.307V438.307C146.109 438.484 146.04 438.564 145.989 438.497C145.166 437.403 144.525 438.879 144.3 439.501C144.254 439.619 144.193 439.635 144.156 439.525Z" fill="white"/>
<path d="M144.808 440.887C144.765 440.71 144.773 440.517 144.832 440.348C145.096 439.632 145.85 437.972 146.765 439.2C146.794 439.271 146.812 439.35 146.817 439.432C146.823 439.513 146.816 439.595 146.797 439.672V439.672C146.763 439.849 146.697 439.93 146.646 439.86C145.823 438.768 145.181 440.244 144.957 440.864C144.908 440.984 144.844 440.998 144.808 440.887Z" fill="white"/>
<path d="M118.265 357.691C118.265 357.691 116.666 376.434 123.918 380.879C131.169 385.324 140.314 385.782 140.314 385.782L140.483 429.43L144.3 430.521C144.3 430.521 155.686 371.701 142.281 360.117L130.017 358.337L124.989 356.643C124.989 356.643 119.961 352.694 119.885 353.296C119.81 353.899 118.377 358.009 118.265 357.691Z" fill="#1E5AB3"/>
<path d="M126.8 295.862C126.8 295.862 122.331 293.368 120.012 293.562C117.694 293.757 120.845 308.959 120.845 308.959L124.633 309.17C124.633 309.17 126.942 305.334 127.278 305.384C128.555 305.575 127.559 296.417 127.559 296.417L126.8 295.862Z" fill="#F7C7A6"/>
<path d="M122.304 283.853L120.974 293.914C120.974 293.914 122.131 299.878 125.68 297.308C125.68 297.308 125.275 295.223 125.816 290.932C126.37 286.547 122.304 283.853 122.304 283.853Z" fill="#F7C7A6"/>
<path opacity="0.6" d="M122.304 283.853L121.682 288.539C122.053 291.973 123.259 294.312 125.536 295.038C125.542 293.657 125.635 292.278 125.816 290.918C126.37 286.547 122.304 283.853 122.304 283.853Z" fill="#F19A5E"/>
<path d="M130.429 276.486C130.141 278.119 130.334 279.91 130.859 280.486C131.384 281.061 132.04 280.198 132.323 278.565C132.606 276.931 132.418 275.141 131.896 274.568C131.374 273.996 130.705 274.853 130.429 276.486Z" fill="#F2A36C"/>
<path d="M130.124 286.136C130.303 285.405 130.45 284.661 130.564 283.906C130.884 281.826 131.092 279.716 131.186 277.594C131.208 277.172 131.237 276.757 131.271 276.339C131.415 274.572 131.419 272.789 131.286 271.021C130.837 265.07 128.845 260.474 126.417 259.865C123.161 259.045 120.393 265.287 120.315 273.226C119.973 272.724 119.583 272.587 119.241 272.945C118.575 273.635 118.316 275.87 118.66 277.939C119.004 280.007 119.824 281.132 120.488 280.446C120.583 280.339 120.666 280.212 120.732 280.071C120.935 286.845 123.1 292.207 125.765 292.274C127.069 292.307 128.262 291.066 129.182 289.001C129.243 288.88 129.307 288.74 129.375 288.576C129.681 287.797 129.932 286.98 130.124 286.136Z" fill="#F7C7A6"/>
<path d="M128.86 273.976C128.755 274.744 128.696 275.521 128.682 276.302C128.672 276.707 128.677 277.113 128.699 277.517C128.716 277.938 128.772 278.354 128.865 278.755L128.911 278.903L128.953 279.03C128.974 279.086 128.993 279.144 129.009 279.204C129.041 279.326 129.061 279.453 129.067 279.582C129.083 279.862 129.047 280.143 128.962 280.399C128.889 280.623 128.783 280.824 128.651 280.99C128.519 281.156 128.363 281.283 128.194 281.363C128.499 281.513 128.862 281.416 129.133 280.8C129.293 280.409 129.369 279.963 129.353 279.515C129.35 279.391 129.34 279.266 129.324 279.144C129.309 279.03 129.287 278.918 129.26 278.809C129.236 278.71 129.207 278.614 129.172 278.521C129.161 278.488 129.152 278.455 129.143 278.421L129.116 278.337C129.047 278.031 129.001 277.716 128.98 277.397C128.945 277.042 128.936 276.667 128.916 276.292C128.889 275.536 128.877 274.776 128.86 273.976Z" fill="#F2A36C"/>
<path d="M137.883 425.2L136.121 437.788L133.529 431.325L134.464 425.36L137.883 425.2Z" fill="#F7C7A6"/>
<path d="M126.985 275.579C126.985 276.248 126.763 276.781 126.497 276.774C126.231 276.767 126.009 276.222 126.009 275.556C126.009 274.89 126.229 274.357 126.497 274.364C126.766 274.371 126.988 274.913 126.985 275.579Z" fill="#141414"/>
<path d="M130.576 275.8C130.576 276.469 130.354 276.998 130.088 276.992C129.822 276.985 129.6 276.439 129.6 275.777C129.6 275.114 129.819 274.575 130.088 274.582C130.356 274.588 130.578 275.134 130.576 275.8Z" fill="#141414"/>
<g style="mix-blend-mode:multiply" opacity="0.3">
<path d="M126.912 283.585C126.912 283.585 127.571 282.999 128.189 284.01C128.189 284.01 128.858 282.966 129.385 283.96C129.385 283.96 129.141 286.443 128.042 286.276C126.944 286.109 126.912 283.585 126.912 283.585Z" fill="#F2A36C"/>
</g>
<path d="M126.336 282.695C126.454 282.936 126.585 283.165 126.727 283.381C126.855 283.581 126.995 283.766 127.147 283.933C127.403 284.238 127.714 284.445 128.047 284.532C128.367 284.595 128.693 284.505 128.97 284.278C129.295 283.998 129.581 283.643 129.817 283.227C129.704 283.484 129.577 283.728 129.436 283.957C129.306 284.158 129.16 284.34 129.002 284.499C128.857 284.635 128.697 284.737 128.528 284.8C128.368 284.852 128.203 284.864 128.04 284.834C127.686 284.734 127.361 284.493 127.108 284.141C126.792 283.723 126.531 283.234 126.336 282.695Z" fill="#F2A36C"/>
<path d="M127.164 271.978C126.937 271.82 126.698 271.699 126.451 271.62C126.229 271.551 125.998 271.56 125.78 271.646C125.543 271.74 125.324 271.906 125.14 272.132C125.029 272.255 124.924 272.388 124.825 272.53C124.718 272.674 124.62 272.865 124.501 272.999C124.555 272.718 124.623 272.443 124.703 272.175C124.781 271.939 124.876 271.715 124.987 271.506C125.156 271.134 125.415 270.856 125.719 270.719C125.854 270.671 125.995 270.663 126.133 270.696C126.271 270.729 126.402 270.802 126.517 270.91C126.802 271.175 127.026 271.545 127.164 271.978V271.978Z" fill="#141414"/>
<path d="M129.373 271.981C129.525 271.589 129.768 271.277 130.063 271.094C130.191 271.021 130.329 270.988 130.468 270.997C130.606 271.006 130.742 271.058 130.864 271.148C131.163 271.379 131.405 271.729 131.557 272.152C131.655 272.395 131.737 272.651 131.801 272.915C131.867 273.196 131.618 272.915 131.662 273.229C131.55 273.049 131.76 273.404 131.662 273.229C131.564 273.055 131.472 272.868 131.367 272.737C131.197 272.461 130.99 272.234 130.756 272.068C130.551 271.921 130.324 271.843 130.093 271.84C129.849 271.844 129.607 271.891 129.373 271.981V271.981Z" fill="#141414"/>
<path d="M129.519 324.218C129.519 324.218 128.543 331.39 128.355 335.202C128.014 342.895 128.406 350.615 129.519 358.169C130.62 365.724 121.282 361.516 121.099 361.299C120.915 361.081 113.2 353.631 113.2 353.631L112.612 338.804L111.724 324.218L112.136 315.636L129.519 324.218Z" fill="#5280C4"/>
<path d="M114.723 303.369C114.723 303.369 115.919 303.627 115.79 308.808C115.661 313.989 114.689 323.87 114.689 323.87C114.689 323.87 105.263 369.017 103.198 373.405C103.158 373.508 103.101 373.597 103.032 373.664C102.962 373.73 102.882 373.774 102.798 373.79L96.4521 373.726C96.4521 373.726 96.8597 372.722 97.2966 372.421L100.257 370.463C100.327 370.404 100.387 370.327 100.434 370.235C100.481 370.144 100.514 370.04 100.531 369.931L101.48 365.617L108.629 318.089C109.361 313.855 111.094 311.435 112.29 307.911C113.149 305.327 114.099 303.111 114.723 303.369Z" fill="#F7C7A6"/>
<path d="M127.559 296.407C127.471 300.912 124.943 308.416 124.943 308.416C124.484 305.906 120.061 293.69 120.012 293.546C118.194 293.616 114.333 294.289 111.975 298.462C108.802 304.069 106.908 316.667 106.908 316.667C106.908 316.667 112.649 323.876 114.077 324.218H130.01C130.01 324.218 132.45 323.762 134.786 320.787C134.781 320.787 134.403 302.127 127.559 296.407Z" fill="#5280C4"/>
<path d="M116.625 309.159C116.459 310.381 116.315 311.62 116.168 312.841C116.022 314.063 115.888 315.325 115.753 316.573C115.619 317.822 115.509 319.077 115.392 320.338C115.275 321.6 115.175 322.869 115.094 324.151L115.216 323.846C115.042 323.883 114.864 323.883 114.689 323.846C114.505 323.809 114.323 323.754 114.145 323.682C113.775 323.53 113.415 323.336 113.069 323.103L112.8 322.926L112.534 322.725C112.358 322.584 112.18 322.46 112.007 322.303L111.48 321.848L110.962 321.349C110.613 321.015 110.274 320.643 109.93 320.292L108.914 319.137L107.909 317.925C107.577 317.497 107.245 317.072 106.908 316.66C107.225 317.155 107.545 317.641 107.865 318.126C108.185 318.611 108.512 319.057 108.841 319.508C109.171 319.96 109.507 320.369 109.842 320.787L110.352 321.376C110.52 321.577 110.691 321.774 110.867 321.945C111.527 322.666 112.239 323.292 112.993 323.813L113.266 323.997L113.544 324.154C113.727 324.258 113.914 324.347 114.103 324.422C114.29 324.493 114.48 324.545 114.672 324.579C114.868 324.624 115.067 324.624 115.263 324.579L115.368 324.549L115.385 324.275C115.539 321.744 115.746 319.224 115.961 316.707L116.285 312.932L116.625 309.159Z" fill="#C7D6EC"/>
<path d="M128.738 306.261C128.962 307.727 129.167 309.196 129.348 310.679C129.529 312.162 129.685 313.658 129.792 315.174C129.851 315.93 129.887 316.694 129.914 317.457C129.941 318.22 129.949 318.986 129.936 319.749C129.914 321.279 129.004 328.472 128.738 329.894C129.116 328.632 130.105 321.379 130.171 319.796C130.236 318.211 130.208 316.622 130.088 315.043C130.029 314.264 129.958 313.49 129.873 312.731C129.787 311.971 129.685 311.221 129.57 310.488C129.357 309.057 129.079 307.645 128.738 306.261V306.261Z" fill="#C7D6EC"/>
<path d="M112.942 353.095C111.401 358.136 111.077 364.947 112.209 370.63C112.99 374.576 114.465 378.255 117.184 379.922C124.432 384.373 133.58 384.825 133.58 384.825L133.749 428.473L137.566 429.564C137.566 429.564 148.952 370.744 135.547 359.16L123.283 357.38L118.255 355.686C118.255 355.686 113.227 351.737 113.151 352.339C113.095 352.598 113.025 352.851 112.942 353.095V353.095Z" fill="#396DBC"/>
<path d="M135.611 385.986C135.416 385.896 135.223 385.816 135.03 385.702C134.837 385.588 134.649 385.461 134.461 385.324C134.366 385.25 134.271 385.17 134.178 385.083C134.279 385.029 134.375 384.961 134.464 384.879C134.661 384.692 134.837 384.467 134.986 384.209C135.151 383.907 135.297 383.587 135.423 383.252C135.556 382.879 135.67 382.494 135.765 382.101L135.57 382.623C135.501 382.783 135.438 382.957 135.364 383.105C135.236 383.402 135.086 383.68 134.915 383.935C134.772 384.159 134.608 384.356 134.427 384.52C134.268 384.665 134.087 384.757 133.898 384.788L133.58 384.815L133.861 385.15C134.037 385.347 134.23 385.515 134.435 385.652C134.624 385.778 134.821 385.882 135.023 385.963C135.217 386.047 135.415 386.109 135.616 386.15C135.813 386.189 136.012 386.208 136.211 386.207C136.002 386.134 135.799 386.073 135.611 385.986Z" fill="#C7D6EC"/>
<path opacity="0.8" d="M74.344 266.204C73.6728 258.918 71.0588 253.486 67.9322 253.486C67.3563 253.489 66.7883 253.67 66.2701 254.014C64.7276 245.791 61.3887 240.091 57.4957 240.091C56.4822 240.103 55.4885 240.478 54.6132 241.179C52.524 232.55 48.7262 226.787 44.3866 226.787C39.2245 226.787 34.8287 234.953 33.1593 246.383C31.9804 244.743 30.6234 243.806 29.176 243.806C24.6534 243.806 20.985 252.95 20.985 264.223C20.985 264.892 20.9996 265.562 21.024 266.204H74.344Z" fill="#D9E4FF"/>
<path d="M292.21 174.182C292.149 162.002 288.674 151.596 283.88 149.233L275.228 144.966C273.861 144.297 272.636 142.416 271.774 139.684L268.428 129.051C267.51 126.139 266.107 124.439 264.623 124.439H241.824C240.337 124.439 238.936 126.139 238.019 129.051L234.67 139.684C233.811 142.416 232.586 144.29 231.219 144.966L222.564 149.233C217.771 151.596 214.297 162.002 214.234 174.182L213.221 372.237C213.18 380.558 214.637 388.483 217.197 393.828C222.186 404.244 232.107 418.743 248.621 418.539V430.829C248.621 438.015 250.959 443.839 253.842 443.839C256.724 443.839 259.06 438.015 259.06 430.829V418.526C274.835 418.014 284.385 403.98 289.25 393.828C291.807 388.473 293.267 380.558 293.223 372.237L292.21 174.182ZM253.222 136.953C255.558 136.953 257.452 141.673 257.452 147.493C257.452 153.313 255.558 158.036 253.222 158.036C250.886 158.036 248.992 153.317 248.992 147.493C248.992 141.669 250.886 136.953 253.222 136.953Z" fill="#EBF0FF"/>
<path d="M222.349 193.966C220.397 194.635 218.932 198.712 218.913 203.579L218.102 360.66C218.063 367.906 219.345 374.807 221.593 379.46C226.106 388.808 235.222 401.935 250.537 400.924C252.327 400.806 254.117 400.806 255.907 400.924C271.222 401.928 280.338 388.808 284.854 379.46C287.102 374.807 288.381 367.906 288.344 360.66L287.526 202.21C287.502 197.3 286.013 193.173 284.043 192.58C258.723 184.775 235.991 189.351 222.349 193.966Z" fill="#C7D6EC"/>
<path d="M284.639 254.557L253.288 266.224L221.869 246.571L221.847 246.494L221.3 353.33C221.266 359.97 222.43 366.296 224.473 370.563C228.576 379.132 236.862 391.161 250.784 390.234C252.411 390.127 254.038 390.127 255.665 390.234C269.577 391.161 277.876 379.132 281.976 370.563C284.017 366.296 285.181 359.97 285.149 353.33L284.644 254.557H284.639Z" fill="#6DC21F"/>
<path d="M221.869 246.571C221.869 246.571 248.638 265.983 264.508 243.709C280.378 221.435 294.336 253.004 276.038 276.68C257.249 300.989 221.869 246.571 221.869 246.571Z" fill="#5DB30C"/>
<path d="M245.631 227.476H226.345C225.155 227.476 224.19 228.799 224.19 230.431V283.331C224.19 284.963 225.155 286.286 226.345 286.286H245.631C246.822 286.286 247.786 284.963 247.786 283.331V230.431C247.786 228.799 246.822 227.476 245.631 227.476Z" fill="white"/>
<g style="mix-blend-mode:screen" opacity="0.5">
<path d="M279.889 203.344H276.526C275.102 203.344 273.949 204.927 273.949 206.879V359.595C273.949 361.547 275.102 363.13 276.526 363.13H279.889C281.313 363.13 282.467 361.547 282.467 359.595V206.879C282.467 204.927 281.313 203.344 279.889 203.344Z" fill="white"/>
</g>
<g style="mix-blend-mode:multiply">
<path d="M244.963 238.484H226.808V241.195H244.963V238.484Z" fill="#7FA1D3"/>
</g>
<g style="mix-blend-mode:multiply">
<path d="M244.963 248.1H226.808V250.811H244.963V248.1Z" fill="#7FA1D3"/>
</g>
<g style="mix-blend-mode:multiply">
<path d="M244.963 257.716H226.808V260.427H244.963V257.716Z" fill="#7FA1D3"/>
</g>
<g style="mix-blend-mode:multiply">
<path d="M244.963 267.332H226.808V270.043H244.963V267.332Z" fill="#7FA1D3"/>
</g>
<path d="M169.569 367.822C169.117 367.752 168.783 366.734 168.785 365.606C168.824 356.677 168.905 306.96 165.856 308.289C162.508 309.745 163.094 377.301 163.252 384.718C163.411 392.135 163.784 428.165 164.529 436.379C165.273 444.592 166.911 618.646 166.069 659.178H197.478C197.478 659.178 189.18 470.287 190.888 456.246C192.597 442.206 193.864 432.406 197.903 418.091C201.942 403.776 201.41 379.677 202.687 372.789C203.963 365.901 206.939 356.232 204.395 353.32C201.852 350.408 197.115 368.95 195.201 386.699C195.201 386.699 193.981 391.599 193.075 385.508C192.17 379.416 190.569 312.008 190.471 306.974C190.373 301.94 189.407 297.703 187.972 298.098C186.537 298.493 185.9 310.947 185.741 331.347C185.582 351.747 186.017 368.304 184.257 367.494C182.497 366.684 183.295 303.118 181.914 292.391C180.532 281.664 177.821 289.078 177.875 302.06C177.928 315.043 178.724 365.653 177.076 365.111C175.429 364.569 176.227 294.774 173.357 295.437C170.391 296.106 170.381 306.96 170.381 325.506C170.374 342.442 171.922 368.187 169.569 367.822Z" fill="#F7C7A6"/>
<path d="M166.388 378.767C166.388 378.767 179.622 368.435 189.575 377.378C189.585 377.378 177.547 374.991 166.388 378.767Z" fill="#F2A36C"/>
<path d="M166.813 397.313C166.813 397.313 178.285 422.214 180.579 434.534C180.579 434.534 186.744 406.453 191.738 396.379C191.738 396.379 184.14 404.592 180.737 419.955C180.737 419.962 174.306 403.009 166.813 397.313Z" fill="#F2A36C"/>
<path d="M166.813 438.243C166.813 438.243 167.77 453.874 177.123 451.631C177.123 451.621 169.515 448.344 166.813 438.243Z" fill="#F2A36C"/>
<path d="M187.32 499.694H171.233C170.084 499.694 169.151 502.013 169.151 504.878V544.975C169.151 547.837 170.084 550.16 171.233 550.16H177.196V567.638C177.196 570.503 178.126 572.826 179.275 572.826C180.425 572.826 181.357 570.503 181.357 567.638V550.183H187.32C188.47 550.183 189.4 547.86 189.4 544.999V504.902C189.4 502.037 188.47 499.694 187.32 499.694Z" fill="#C7D6EC"/>
<path d="M184.216 508.757H174.335C173.478 508.757 172.783 509.71 172.783 510.886V538.994C172.783 540.17 173.478 541.123 174.335 541.123H184.216C185.073 541.123 185.768 540.17 185.768 538.994V510.886C185.768 509.71 185.073 508.757 184.216 508.757Z" fill="#DDE6F4"/>
<path opacity="0.9" d="M216.201 480.589H205.15V649.565H216.201V480.589Z" fill="white"/>
<path d="M216.86 470.762H204.493C203.69 470.762 203.038 471.655 203.038 472.757V493.157C203.038 494.259 203.69 495.152 204.493 495.152H216.86C217.663 495.152 218.315 494.259 218.315 493.157V472.757C218.315 471.655 217.663 470.762 216.86 470.762Z" fill="#A481C9"/>
<path d="M206.331 470.762H204.576V495.065H206.331V470.762Z" fill="#9369BF"/>
<path d="M209.814 470.762H208.059V495.065H209.814V470.762Z" fill="#9369BF"/>
<path d="M213.294 470.762H211.539V495.065H213.294V470.762Z" fill="#9369BF"/>
<path d="M216.777 470.762H215.022V495.065H216.777V470.762Z" fill="#9369BF"/>
<path d="M206.336 495.065H215.027V499.834C215.027 500.633 214.796 501.399 214.384 501.964C213.972 502.529 213.413 502.847 212.831 502.847H208.515C207.933 502.847 207.374 502.529 206.962 501.964C206.55 501.399 206.319 500.633 206.319 499.834V495.065H206.336Z" fill="#9369BF"/>
<path d="M215.044 649.565H206.309V559.812L210.029 563.233L215.044 559.812V649.565Z" fill="#6DC21F"/>
<path d="M206.309 559.812C206.309 559.812 210.109 562.641 212.362 559.394C214.615 556.147 216.291 559.511 214 564.197C211.639 569.023 206.309 559.812 206.309 559.812Z" fill="#5DB30C"/>
<g style="mix-blend-mode:lighten" opacity="0.2">
<path d="M208.398 498.947H207.717C207.429 498.947 207.195 499.268 207.195 499.664V646.566C207.195 646.962 207.429 647.283 207.717 647.283H208.398C208.687 647.283 208.921 646.962 208.921 646.566V499.664C208.921 499.268 208.687 498.947 208.398 498.947Z" fill="white"/>
</g>
<path opacity="0.9" d="M235.302 480.589H224.251V649.565H235.302V480.589Z" fill="white"/>
<path d="M235.961 470.762H223.594C222.791 470.762 222.139 471.655 222.139 472.757V493.157C222.139 494.259 222.791 495.152 223.594 495.152H235.961C236.765 495.152 237.416 494.259 237.416 493.157V472.757C237.416 471.655 236.765 470.762 235.961 470.762Z" fill="#A481C9"/>
<path d="M225.429 470.762H223.675V495.065H225.429V470.762Z" fill="#9369BF"/>
<path d="M228.912 470.762H227.158V495.065H228.912V470.762Z" fill="#9369BF"/>
<path d="M232.395 470.762H230.64V495.065H232.395V470.762Z" fill="#9369BF"/>
<path d="M235.878 470.762H234.123V495.065H235.878V470.762Z" fill="#9369BF"/>
<path d="M225.432 495.065H234.123V499.834C234.123 500.633 233.892 501.399 233.48 501.964C233.068 502.529 232.509 502.847 231.927 502.847H227.616C227.034 502.847 226.475 502.529 226.063 501.964C225.651 501.399 225.42 500.633 225.42 499.834V495.065H225.432Z" fill="#9369BF"/>
<path d="M234.145 649.565H225.407V559.812L229.13 563.233L234.145 559.812V649.565Z" fill="#6DC21F"/>
<path d="M225.407 559.812C225.407 559.812 229.21 562.641 231.463 559.394C233.716 556.147 235.39 559.511 233.098 564.197C230.743 569.023 225.407 559.812 225.407 559.812Z" fill="#5DB30C"/>
<g style="mix-blend-mode:lighten" opacity="0.2">
<path d="M227.497 498.947H226.816C226.527 498.947 226.294 499.268 226.294 499.664V646.566C226.294 646.962 226.527 647.283 226.816 647.283H227.497C227.785 647.283 228.019 646.962 228.019 646.566V499.664C228.019 499.268 227.785 498.947 227.497 498.947Z" fill="white"/>
</g>
<path opacity="0.9" d="M254.403 480.589H243.352V649.565H254.403V480.589Z" fill="white"/>
<path d="M255.06 470.762H242.693C241.889 470.762 241.238 471.655 241.238 472.757V493.157C241.238 494.259 241.889 495.152 242.693 495.152H255.06C255.863 495.152 256.515 494.259 256.515 493.157V472.757C256.515 471.655 255.863 470.762 255.06 470.762Z" fill="#A481C9"/>
<path d="M244.531 470.762H242.776V495.065H244.531V470.762Z" fill="#9369BF"/>
<path d="M248.014 470.762H246.259V495.065H248.014V470.762Z" fill="#9369BF"/>
<path d="M251.494 470.762H249.739V495.065H251.494V470.762Z" fill="#9369BF"/>
<path d="M254.977 470.762H253.222V495.065H254.977V470.762Z" fill="#9369BF"/>
<path d="M244.531 495.065H253.222V499.834C253.222 500.633 252.991 501.399 252.579 501.964C252.167 502.529 251.608 502.847 251.025 502.847H246.715C246.133 502.847 245.574 502.529 245.162 501.964C244.75 501.399 244.518 500.633 244.518 499.834V495.065H244.531Z" fill="#9369BF"/>
<path d="M253.244 649.565H244.509V559.812L248.228 563.233L253.244 559.812V649.565Z" fill="#6DC21F"/>
<path d="M244.509 559.812C244.509 559.812 248.309 562.641 250.562 559.394C252.814 556.147 254.491 559.511 252.199 564.197C249.839 569.023 244.509 559.812 244.509 559.812Z" fill="#5DB30C"/>
<g style="mix-blend-mode:lighten" opacity="0.2">
<path d="M246.598 498.947H245.917C245.628 498.947 245.395 499.268 245.395 499.664V646.566C245.395 646.962 245.628 647.283 245.917 647.283H246.598C246.886 647.283 247.12 646.962 247.12 646.566V499.664C247.12 499.268 246.886 498.947 246.598 498.947Z" fill="white"/>
</g>
<path d="M269.795 537.967C270.756 537.967 271.535 536.022 271.535 533.615V522.57C271.535 520.171 270.756 518.219 269.795 518.219H189.739C188.777 518.219 187.996 520.164 187.996 522.57V533.615C187.996 536.015 188.777 537.967 189.739 537.967H195.597V647.296H189.295C188.587 647.296 188.011 648.729 188.011 650.499V656.189C188.011 657.956 188.587 659.389 189.295 659.389H270.258C270.969 659.389 271.542 657.956 271.542 656.189V650.499C271.542 648.729 270.969 647.296 270.258 647.296H263.937V537.967H269.795ZM260.876 647.296H198.677V537.967H260.876V647.296Z" fill="black"/>
<path d="M279.101 552.121C278.403 532.608 274.176 515.525 270.444 500.433C268.616 493.07 266.729 485.422 264.715 478.106C264.149 476.054 263.563 473.979 263.007 471.971C259.629 460.015 256.136 447.651 255.353 433.771L251.802 435.016C252.705 451.035 256.439 464.293 260.073 477.118C260.634 479.103 261.215 481.158 261.782 483.166C263.734 490.299 265.611 497.839 267.417 505.146C270.939 519.377 274.93 535.507 275.552 552.914C275.969 564.558 274.734 575.647 272.169 583.342C268.843 593.312 263.078 598.865 254.542 600.321C251.953 600.759 249.195 600.957 246.581 599.407C245.192 598.587 243.842 597.279 242.414 595.89C241.9 595.394 241.37 594.886 240.838 594.39C234.599 588.65 228.878 587.197 223.819 590.073C219.132 592.75 215.081 599.056 211.166 605.161C210.143 606.754 209.086 608.401 208.047 609.934C202.082 618.733 197.195 621.758 193.11 619.185C189.356 616.822 185.922 609.301 183.691 598.554C181.689 588.918 181.875 581.056 181.162 569.937C180.821 571.641 180.115 572.815 179.3 572.815C178.812 572.815 178.348 572.38 177.992 571.657C178.15 578.261 178.709 594.022 180.506 602.664C183.208 615.684 187.481 624.865 192.221 627.853C193.415 628.617 194.716 629.014 196.034 629.015C200.136 629.015 204.701 625.246 209.865 617.635C210.941 616.045 212.018 614.368 213.058 612.748C216.889 606.774 220.511 601.131 224.609 598.798C228.973 596.315 234.014 597.653 239.586 602.784C240.088 603.246 240.603 603.748 241.101 604.23C242.583 605.666 244.113 607.149 245.739 608.116C248.826 609.944 252.041 609.713 254.769 609.247C264.335 607.617 270.922 601.014 274.908 589.065C278.071 579.563 279.601 566.098 279.101 552.121Z" fill="white"/>
<path d="M278.12 552.339C277.441 533.405 273.28 516.583 269.604 501.725C267.783 494.362 265.902 486.764 263.9 479.498C263.339 477.456 262.753 475.388 262.192 473.386C258.745 461.19 255.184 448.582 254.367 434.113L252.768 434.675C253.639 450.105 257.315 463.124 260.871 475.702C261.435 477.711 262.016 479.756 262.58 481.774C264.557 488.96 266.429 496.521 268.242 503.864C271.823 518.326 275.877 534.72 276.521 552.707C276.961 564.99 275.645 576.735 272.911 584.925C269.407 595.438 263.415 601.278 254.606 602.784C251.938 603.24 249.09 603.434 246.347 601.811C244.882 600.95 243.447 599.548 242.051 598.192C241.541 597.7 241.016 597.188 240.491 596.706C234.436 591.134 228.9 589.711 224.033 592.482C219.508 595.056 215.53 601.258 211.683 607.256C210.656 608.856 209.594 610.513 208.545 612.059C202.345 621.206 197.215 624.322 192.863 621.581C188.836 619.044 185.172 611.068 182.81 599.695C180.816 590.099 181.087 582.585 180.467 571.915C180.333 572.177 180.159 572.393 179.956 572.549C179.753 572.705 179.527 572.796 179.295 572.816C179.154 572.814 179.015 572.779 178.883 572.712C179.522 583.65 179.288 591.478 181.377 601.533C183.949 613.917 187.994 622.652 192.468 625.47C193.585 626.185 194.803 626.555 196.036 626.555C199.961 626.555 204.359 622.9 209.367 615.51C210.434 613.94 211.503 612.27 212.54 610.657C216.272 604.836 220.136 598.818 224.395 596.392C228.949 593.801 234.177 595.173 239.932 600.472C240.442 600.94 240.962 601.446 241.465 601.931C242.915 603.337 244.411 604.789 245.976 605.716C248.926 607.464 251.921 607.266 254.716 606.787C263.991 605.204 270.358 598.892 274.164 587.489C277.146 578.485 278.596 565.673 278.12 552.339Z" fill="#6DC21F"/>
<path d="M296.662 644.167L296.579 649.99L300.245 649.545L301.106 642.423L296.662 644.167Z" fill="#F7C7A6"/>
<path d="M319.737 635.367L322.392 645.274L325.26 639.578L324.291 632.539L319.737 635.367Z" fill="#F7C7A6"/>
<path d="M320.993 659.118L327.776 646.871C327.883 646.628 327.949 646.354 327.967 646.071C327.985 645.788 327.956 645.503 327.881 645.238C327.73 644.716 327.437 644.598 327.227 644.98L320.444 657.227C320.337 657.469 320.272 657.742 320.254 658.025C320.235 658.308 320.265 658.592 320.339 658.857V658.857C320.491 659.379 320.784 659.496 320.993 659.118Z" fill="white"/>
<path d="M325.589 639.17L327.369 643.979C327.588 644.572 327.613 645.425 327.422 645.77L320.776 657.769C320.741 657.844 320.692 657.906 320.634 657.949C320.577 657.992 320.512 658.014 320.447 658.014C320.381 658.014 320.317 657.992 320.259 657.949C320.202 657.906 320.153 657.844 320.117 657.769C319.873 657.434 319.629 656.674 319.629 655.091C319.614 651.955 321.384 647.962 321.845 644.471C321.851 644.408 321.869 644.348 321.896 644.297L324.955 638.775C325.118 638.47 325.392 638.634 325.589 639.17Z" fill="#141414"/>
<path d="M323.21 646.576C323.222 646.49 323.22 646.401 323.205 646.316C323.19 646.23 323.161 646.15 323.122 646.081C322.783 645.596 321.865 644.575 321.14 646.436C321.12 646.513 321.112 646.594 321.117 646.676C321.121 646.757 321.138 646.836 321.167 646.908V646.908C321.223 647.052 321.296 647.078 321.335 646.975C321.987 645.301 322.785 646.235 323.066 646.64C323.127 646.744 323.185 646.71 323.21 646.576Z" fill="white"/>
<path d="M322.714 648.501C322.727 648.414 322.725 648.325 322.711 648.239C322.696 648.153 322.668 648.072 322.629 648.002C322.289 647.517 321.369 646.5 320.644 648.357C320.625 648.435 320.618 648.517 320.623 648.599C320.628 648.681 320.645 648.76 320.674 648.832V648.832C320.727 648.973 320.801 649 320.842 648.896C321.494 647.222 322.292 648.16 322.573 648.561C322.631 648.668 322.692 648.635 322.714 648.501Z" fill="white"/>
<path d="M322.27 650.308C322.282 650.221 322.28 650.132 322.265 650.046C322.25 649.96 322.222 649.88 322.182 649.81C321.843 649.324 320.925 648.307 320.2 650.168C320.18 650.245 320.172 650.326 320.177 650.408C320.181 650.489 320.199 650.568 320.227 650.64V650.64C320.281 650.784 320.354 650.807 320.393 650.703C321.045 649.03 321.843 649.967 322.124 650.369C322.175 650.459 322.236 650.426 322.27 650.308Z" fill="white"/>
<path d="M254.364 434.113C254.364 434.113 253.486 406.982 254.979 376.25C256.473 345.518 251.496 378.767 251.496 378.767C251.496 378.767 251.389 421.943 252.766 434.662C254.142 447.38 254.364 434.113 254.364 434.113Z" fill="#6DC21F"/>
<path d="M313.632 415.852C313.781 416.049 313.908 416.274 314.011 416.521C314.389 417.448 314.499 418.917 314.906 419.764C315.104 420.119 315.336 420.434 315.597 420.701C315.987 421.182 316.252 421.823 316.354 422.529C316.416 423.024 316.444 423.526 316.439 424.028C316.472 424.94 316.444 425.855 316.354 426.759C316.29 427.268 316.188 427.743 316.136 428.262C316.034 429.286 316.136 430.374 316.08 431.422C316.019 432.178 315.907 432.926 315.746 433.654C315.682 434.018 315.593 434.372 315.48 434.712C315.378 435.014 315.202 435.258 314.983 435.402C314.764 435.547 314.515 435.582 314.279 435.502C313.852 435.398 313.42 435.13 313 435.334C312.646 435.502 312.334 436.004 312.004 436.339C311.557 436.859 310.981 437.123 310.396 437.075C310.229 437.07 310.069 436.977 309.949 436.817C309.802 436.564 309.689 436.278 309.615 435.97C309.043 434.166 308.57 432.306 308.202 430.404C307.807 428.307 307.694 426.128 307.87 423.975C308.018 422.49 308.339 421.048 308.822 419.704C309.25 418.552 309.739 417.444 310.286 416.39C311.172 414.613 312.634 414.476 313.632 415.852Z" fill="#141414"/>
<path d="M299.083 493.271L300.059 482.858L296.093 475.428C296.093 475.428 295.407 487.839 295.061 492.832L287.05 493.167L285.513 493.893C285.513 493.893 296.196 505.042 296.877 501.622C297.067 500.658 297.641 499.279 298.187 497.632L298.654 497.913L298.912 495.145C299.059 494.531 299.173 493.904 299.254 493.267L299.083 493.271Z" fill="#F7C7A6"/>
<path d="M302.322 445.526C302.322 445.526 297.196 450.546 295.219 476.961C295.219 476.961 296.501 481.285 299.369 481.764C302.236 482.243 301.358 464.808 301.358 464.808L302.322 445.526Z" fill="#376CBB"/>
<path d="M308.36 436.857L308.165 444.505L303.982 446.674H303.242L303.396 437.51L307.833 433.604L308.36 436.857Z" fill="#F7C7A6"/>
<path d="M301.797 449.107C301.609 454.245 302.461 455.202 302.461 455.202L308.78 443.518C306.603 444.03 304.447 444.701 302.322 445.526C302.322 445.526 301.997 449.248 301.797 449.107Z" fill="#F7C7A6"/>
<path d="M312.28 420.219C312.28 420.219 313.569 407.029 310.496 402.089C307.423 397.149 304.167 397.697 301.953 400.656C299.74 403.615 298.407 413.937 299.4 419.834L306.764 414.205L312.28 420.219Z" fill="#141414"/>
<path d="M286.369 486.376C285.637 485.583 285.1 484.766 284.89 483.956L284.646 482.43C284.353 480.519 283.914 479.682 283.631 480.057L283.585 480.151C283.585 480.151 283.77 483.243 283.921 485.774L283.284 485.536L282.948 495.162L285.984 494.158L286.369 486.376Z" fill="#F7C7A6"/>
<path d="M309.625 509.561L306.586 575.791C306.586 575.791 303.706 632.469 301.38 645.074H296.223L297.345 518.407L306.437 504.162L309.625 509.561Z" fill="#1E5AB3"/>
<path d="M308.451 434.859C308.451 434.859 308.36 437.078 308.285 439.846C306.693 444.197 303.711 442.698 303.318 442.276C303.34 440.887 303.318 438.069 303.318 438.069L308.451 434.859Z" fill="#F2A36C"/>
<path d="M312.051 503.154C312.051 503.154 317.816 521.683 316.444 551.174C315.072 580.664 315.382 591.254 315.382 591.254C315.382 591.254 322.814 608.27 325.091 632.847C325.091 632.847 321.828 638.537 319.629 639.464C319.629 639.464 308.707 597.871 307.872 592.958C307.037 588.044 301.846 510.756 301.846 510.756L312.051 503.154Z" fill="#396DBC"/>
<path d="M300.355 422.164C300.618 423.941 300.355 425.802 299.798 426.324C299.242 426.846 298.553 425.832 298.292 424.058C298.031 422.284 298.292 420.42 298.849 419.898C299.405 419.376 300.094 420.39 300.355 422.164Z" fill="#F2A36C"/>
<path d="M300.416 432.419C300.245 431.62 300.109 430.807 300.008 429.986C299.728 427.745 299.565 425.48 299.52 423.208C299.52 422.76 299.488 422.315 299.461 421.869C299.357 419.992 299.398 418.105 299.586 416.24C300.213 410.014 302.451 405.473 305.026 405.218C308.492 404.883 311.257 411.912 311.143 420.34C311.516 419.861 311.931 419.781 312.287 420.216C312.973 421.049 313.188 423.459 312.776 425.595C312.363 427.73 311.462 428.784 310.777 427.937C310.676 427.808 310.589 427.661 310.518 427.499C310.127 434.631 307.699 439.956 304.877 439.598C303.498 439.424 302.266 437.925 301.358 435.582C301.297 435.445 301.231 435.287 301.165 435.103C300.856 434.242 300.606 433.343 300.416 432.419Z" fill="#F7C7A6"/>
<path d="M305.695 422.351C305.678 423.111 305.912 423.757 306.217 423.794C306.522 423.831 306.781 423.252 306.796 422.492C306.81 421.732 306.576 421.086 306.273 421.049C305.971 421.013 305.71 421.595 305.695 422.351Z" fill="#141414"/>
<path d="M300.792 422.351C300.775 423.111 301.009 423.757 301.314 423.794C301.619 423.831 301.878 423.252 301.892 422.492C301.907 421.732 301.675 421.086 301.37 421.049C301.065 421.013 300.814 421.595 300.792 422.351Z" fill="#141414"/>
<path d="M305.231 420.062C305.457 419.754 305.719 419.503 306.007 419.319C306.258 419.161 306.538 419.107 306.81 419.165C306.949 419.196 307.083 419.259 307.206 419.353C307.272 419.399 307.337 419.45 307.399 419.506L307.491 419.604C307.523 419.637 307.555 419.667 307.584 419.704C307.848 420.036 308.084 420.406 308.289 420.808C308.141 420.282 307.927 419.795 307.657 419.369C307.543 419.189 307.409 419.032 307.262 418.904C307.131 418.789 306.984 418.712 306.83 418.676C306.526 418.612 306.216 418.71 305.963 418.951C305.82 419.082 305.688 419.236 305.571 419.409C305.439 419.608 305.325 419.827 305.231 420.062V420.062Z" fill="#141414"/>
<path d="M303.008 420.062C302.914 419.827 302.8 419.608 302.669 419.409C302.551 419.236 302.42 419.082 302.276 418.951C302.023 418.71 301.713 418.612 301.409 418.676C301.255 418.712 301.109 418.789 300.977 418.904C300.829 419.031 300.696 419.188 300.582 419.369C300.311 419.795 300.096 420.282 299.947 420.808C300.152 420.406 300.389 420.036 300.653 419.704L300.748 419.604L300.84 419.506C300.902 419.449 300.967 419.398 301.033 419.353C301.156 419.259 301.29 419.196 301.429 419.165C301.702 419.107 301.981 419.161 302.232 419.319C302.52 419.503 302.783 419.754 303.008 420.062V420.062Z" fill="#141414"/>
<path d="M315.607 466.257C315.475 465.923 315.348 465.521 315.233 465.126C315.119 464.731 315.009 464.313 314.916 463.878C314.823 463.443 314.731 463.004 314.655 462.539C314.579 462.074 314.516 461.608 314.457 461.126C314.48 461.621 314.522 462.114 314.584 462.602C314.611 462.843 314.648 463.078 314.684 463.315C314.721 463.553 314.762 463.784 314.811 464.008C314.898 464.45 315.002 464.886 315.121 465.314C315.216 465.648 315.316 465.983 315.429 466.271C315.328 466.321 315.223 466.353 315.116 466.368C314.969 466.387 314.821 466.369 314.679 466.314C314.606 466.288 314.534 466.254 314.465 466.214C314.392 466.167 314.322 466.113 314.255 466.053C314.108 465.914 313.974 465.753 313.854 465.571C313.958 465.801 314.085 466.009 314.23 466.19C314.356 466.35 314.503 466.475 314.662 466.562C314.807 466.644 314.962 466.683 315.119 466.676C315.278 466.676 315.436 466.627 315.58 466.532L315.69 466.462L315.607 466.257Z" fill="white"/>
<path d="M303.655 421.709C303.501 422.335 303.367 422.987 303.247 423.657C303.127 424.326 303.022 424.996 302.939 425.725C302.903 426.083 302.869 426.448 302.856 426.84C302.856 426.94 302.856 427.041 302.856 427.148C302.856 427.201 302.856 427.258 302.856 427.312C302.865 427.373 302.876 427.433 302.891 427.492C302.898 427.522 302.907 427.551 302.917 427.579L302.939 427.63L302.986 427.723C303.016 427.78 303.048 427.833 303.083 427.884C303.203 428.064 303.34 428.221 303.491 428.349C303.626 428.466 303.77 428.56 303.921 428.63C303.641 428.323 303.386 427.975 303.162 427.593C303.132 427.543 303.108 427.486 303.081 427.432L303.044 427.345L303.027 427.305C303.029 427.297 303.029 427.289 303.027 427.282C303.013 427.144 303.013 427.004 303.027 426.867C303.042 426.532 303.074 426.197 303.113 425.842C303.188 425.153 303.286 424.47 303.379 423.784C303.472 423.098 303.567 422.418 303.655 421.709Z" fill="#F2A36C"/>
<path d="M314.609 488.073C315.36 477.65 315.685 466.465 315.685 466.465C315.726 463.884 315.714 461.605 315.66 459.583C314.611 457.461 313.151 454.446 313.151 454.446L310.652 443.836C309.703 443.615 308.7 443.501 308.7 443.501L302.463 455.195L302.324 445.519C302.293 445.576 302.261 445.633 302.232 445.697C299.547 451.182 297.79 459.111 297.411 467.827C297.145 473.979 297.167 480.546 297.326 486.393C297.326 486.393 296.259 520.311 295.749 525.733C295.749 525.733 309.883 529.238 317.43 525.733C317.428 525.74 314.54 502.853 314.609 488.073Z" fill="#5280C4"/>
<path d="M296.481 514.886L285.669 516.509C284.986 516.613 284.229 515.505 283.978 514.072L278.291 481.272C278.047 479.826 278.388 478.567 279.072 478.464L289.884 476.84C290.567 476.737 291.324 477.845 291.576 479.277L297.262 512.078C297.514 513.523 297.165 514.782 296.481 514.886Z" fill="#141414"/>
<path d="M286.682 478.966L283.001 479.518C282.706 479.565 282.379 479.093 282.269 478.467L282.166 477.878C282.059 477.252 282.208 476.71 282.503 476.663L286.184 476.111C286.479 476.067 286.806 476.539 286.916 477.165L287.019 477.751C287.124 478.377 286.977 478.922 286.682 478.966Z" fill="#B7CAE7"/>
<path d="M282.657 506.505L282.613 506.555C282.34 506.853 282.02 506.592 281.881 505.949L280.187 498.616C280.098 498.246 280.098 497.847 280.187 497.478C280.473 496.41 281.09 494.215 281.302 494.295C281.581 494.402 280.731 498.05 280.846 498.124C280.961 498.198 282.164 495.781 282.267 496.163C282.369 496.544 281.29 499.342 281.349 499.563C281.407 499.784 282.618 498.014 282.75 498.331C282.882 498.649 281.717 500.902 281.735 501.063L282.657 506.505Z" fill="#F7C7A6"/>
<path d="M292.378 514.969C292.378 514.457 294.106 511.234 294.009 511.007C293.911 510.779 291.998 513.637 291.859 512.978C291.719 512.319 293.858 509.363 293.662 508.961C293.467 508.56 291.305 511.716 291.222 511.063C291.148 510.514 293.53 506.829 294.29 505.668C294.338 505.575 294.362 505.463 294.359 505.348C294.357 505.234 294.327 505.124 294.275 505.035C292.676 503.154 292.596 502.776 292.72 502.385C292.806 502.107 294.402 502.616 295.893 502.877L297.719 503.312C298.231 503.011 313.554 493.99 314.391 491.484C315.228 488.977 312.961 475.16 312.961 475.16L317.938 469.835C317.938 469.835 320.217 492.431 318.023 499.392C316.839 503.148 297.807 509.842 297.807 509.842C297.506 510.417 296.689 511.793 296.689 511.793C293.364 517.065 293.738 516.66 293.643 516.392C293.548 516.124 294.661 512.985 294.512 512.794C294.363 512.603 292.366 515.481 292.378 514.969Z" fill="#F7C7A6"/>
<path d="M310.652 443.836C310.652 443.836 316.227 449.097 319.756 469.554C319.756 469.554 318.026 479.103 312.287 479.428L310.652 443.836Z" fill="#5280C4"/>
<path d="M319.756 469.571C319.415 471.023 318.933 472.405 318.323 473.681C317.818 474.771 317.203 475.757 316.495 476.61C315.875 477.317 315.182 477.894 314.438 478.32C314.088 478.504 313.73 478.656 313.366 478.775C313.005 478.865 312.634 478.909 312.28 478.979L312.468 479.337C312.285 477.527 312.077 475.746 311.858 473.982C311.638 472.218 311.401 470.441 311.126 468.717C310.85 466.994 310.545 465.287 310.193 463.643C309.842 462 309.434 460.393 308.861 459.188C309.377 460.678 309.769 462.241 310.03 463.851C310.342 465.518 310.617 467.225 310.855 468.972C311.099 470.715 311.328 472.459 311.536 474.23C311.743 476 311.936 477.781 312.109 479.565L312.146 479.957L312.297 479.923C312.671 479.839 313.044 479.779 313.415 479.672C313.791 479.536 314.159 479.365 314.518 479.16C314.895 478.943 315.255 478.678 315.595 478.367C315.962 478.041 316.307 477.672 316.627 477.262C317.34 476.304 317.953 475.216 318.45 474.029C319.031 472.631 319.47 471.131 319.756 469.571V469.571Z" fill="#F5F2F9"/>
<path d="M281.654 501.146C281.654 501.146 282.874 500.219 282.984 500.564C283.094 500.909 281.647 502.85 281.654 502.76C281.661 502.669 281.654 501.146 281.654 501.146Z" fill="#F7C7A6"/>
<path d="M311.88 418.399L311.741 418.359L311.648 415.497L311.135 412.853C311.135 412.853 309.124 405.734 309.053 405.56C308.983 405.386 307.447 403.09 307.345 402.969C307.242 402.849 305.102 403.735 305.102 403.735C305.102 403.735 301.324 401.707 301.963 406.969C302.603 412.23 305.361 414.968 305.502 414.734C305.056 413.556 305.014 410.205 305.014 410.205C307.14 416.32 311.133 420.343 311.133 420.343C311.133 420.343 311.55 419.547 312.278 420.219L311.88 418.399Z" fill="#141414"/>
<path d="M302.432 430.806C302.578 432.429 303.21 433.634 303.957 433.604C304.704 433.574 305.319 432.312 305.444 430.675L302.432 430.806Z" fill="white"/>
<path d="M118.631 544.684H116.085V527.879C116.085 523.641 114.701 520.181 113.003 520.181H87.5923C85.8837 520.181 84.5096 523.628 84.5096 527.879V544.684H81.964V527.879C81.964 520.144 84.4877 513.852 87.5923 513.852H113.003C116.107 513.852 118.631 520.144 118.631 527.879V544.684Z" fill="#6890CC"/>
<path d="M81.5661 538.104H84.905C85.3672 538.104 85.8105 538.356 86.1373 538.804C86.4641 539.252 86.6477 539.86 86.6477 540.494V542.9H79.8137V540.494C79.8137 540.179 79.8591 539.867 79.9473 539.576C80.0354 539.285 80.1647 539.021 80.3275 538.799C80.4904 538.577 80.6837 538.401 80.8962 538.282C81.1088 538.163 81.3364 538.102 81.5661 538.104V538.104Z" fill="#396DBC"/>
<path d="M115.687 538.104H119.026C119.488 538.104 119.932 538.356 120.259 538.804C120.585 539.252 120.769 539.86 120.769 540.494V542.9H113.935V540.494C113.935 540.179 113.98 539.867 114.069 539.576C114.157 539.285 114.286 539.021 114.449 538.799C114.612 538.577 114.805 538.401 115.018 538.282C115.23 538.163 115.458 538.102 115.687 538.104V538.104Z" fill="#396DBC"/>
<path d="M125.548 542.9H73.7021C70.9253 542.9 68.6742 545.987 68.6742 549.795V652.323C68.6742 656.131 70.9253 659.218 73.7021 659.218H125.548C128.325 659.218 130.576 656.131 130.576 652.323V549.795C130.576 545.987 128.325 542.9 125.548 542.9Z" fill="#A481C9"/>
<path d="M87.602 542.9H78.874V659.218H87.602V542.9Z" fill="#9369BF"/>
<path d="M121.723 542.9H112.995V659.218H121.723V542.9Z" fill="#9369BF"/>
<path d="M109.027 595.311H102.603V579.305H97.9922V595.311H91.5682V606.808H97.9922V622.816H102.603V606.808H109.027V595.311Z" fill="white"/>
<path d="M120.308 273.226C120.308 273.226 124.72 269.344 127.576 261.267C127.576 261.267 129.692 268.52 131.14 269.558C131.14 269.558 131.271 258.001 126.502 256.414C121.733 254.828 119.251 264.082 120.308 273.226Z" fill="#141414"/>
<path d="M156.997 247.602L153.597 232.038L150.199 247.602C150.199 247.602 142.682 282.41 145.098 297.274L145.171 297.716C148.344 316.255 158.864 316.255 162.029 297.716C162.056 297.569 162.081 297.422 162.105 297.274C164.516 282.424 156.997 247.602 156.997 247.602Z" fill="#5DB30C"/>
<path d="M153.597 232.038L150.199 247.602C150.199 247.602 143.941 276.59 144.681 292.95C149.008 303.46 156.831 300.949 159.486 285.406L159.559 284.967C161.295 274.311 157.914 253.382 155.867 242.4L153.597 232.038Z" fill="#6DC21F"/>
<path d="M166.391 254.024C165.927 255.005 165.483 256.033 165.046 257.057C164.177 259.129 163.352 261.287 162.557 263.507C161.761 265.726 161.007 268.022 160.277 270.368C159.789 271.961 159.309 273.581 158.837 275.228L158.498 274.528C158.254 274.08 158.031 273.645 157.797 273.189C157.563 272.734 157.324 272.326 157.087 271.894C156.599 271.051 156.111 270.221 155.622 269.427C155.132 268.642 154.611 267.894 154.063 267.185C154.356 268.524 154.683 269.762 155.017 270.987C155.352 272.212 155.703 273.397 156.057 274.568C156.238 275.144 156.416 275.726 156.601 276.295C156.787 276.864 156.97 277.433 157.158 277.992L157.726 279.666L158.307 281.299L159.083 283.478L159.972 281.005C160.77 278.789 161.529 276.506 162.264 274.167C162.998 271.827 163.699 269.434 164.37 266.974C165.041 264.514 165.673 261.984 166.264 259.37C166.559 258.061 166.845 256.739 167.111 255.377C167.377 254.014 167.638 252.635 167.843 251.18C167.328 252.07 166.855 253.02 166.391 254.024Z" fill="white"/>
<path opacity="0.8" d="M135.718 180.183C135.23 174.968 133.368 171.079 131.13 171.079C130.718 171.081 130.312 171.21 129.941 171.457C128.836 165.57 126.439 161.49 123.659 161.49C122.934 161.499 122.223 161.768 121.596 162.27C120.1 156.095 117.381 151.965 114.274 151.965C110.579 151.965 107.44 157.812 106.239 165.992C105.395 164.82 104.423 164.148 103.389 164.148C100.15 164.148 97.5309 170.691 97.5309 178.764C97.5309 179.243 97.5309 179.715 97.5577 180.183H135.718Z" fill="#D9E4FF"/>
<path opacity="0.8" d="M218.569 120.479C218.178 116.239 216.655 113.076 214.837 113.076C214.499 113.076 214.165 113.181 213.861 113.384C212.962 108.598 211.012 105.281 208.752 105.281C208.162 105.287 207.583 105.505 207.073 105.913C205.853 100.893 203.656 97.5459 201.12 97.5459C198.115 97.5459 195.555 102.299 194.586 108.952C193.9 107.999 193.122 107.453 192.267 107.453C189.634 107.453 187.498 112.775 187.498 119.341C187.498 119.73 187.498 120.115 187.52 120.493L218.569 120.479Z" fill="#D9E4FF"/>
<path d="M48.5846 651.356C49.1777 652.788 49.6756 655.63 50.2004 658.636C50.63 661.076 51.0888 663.693 51.7014 666.277H67.2537C66.8315 665.607 66.4019 665.002 65.9577 664.436C65.0338 663.299 64.0553 662.248 63.0288 661.29C61.6986 659.998 60.4441 658.78 59.7998 657.176C59.214 655.717 58.7234 652.906 58.2011 649.934C57.4396 645.582 56.4926 640.157 54.662 635.736C52.1945 629.771 49.0484 627.776 46.5369 626.177C44.7722 625.055 43.1052 623.998 42.3266 622.046C41.9068 620.992 41.4846 619.034 41.0355 616.946C40.7548 615.634 40.4619 614.268 40.1153 612.862C37.2548 601.178 32.305 592.981 26.8744 590.936C26.5669 590.822 26.2789 590.732 26.0007 590.645C25.554 590.508 21.4414 588.416 20.0697 590.762C17.4899 595.177 17.5826 604.819 20.2747 608.796C20.576 609.248 20.9025 609.668 21.251 610.051C22.6007 611.52 23.8845 611.918 24.9121 612.24C25.1562 612.313 25.3636 612.38 25.5613 612.454C28.4267 613.532 31.1433 618.033 32.6541 624.198C32.8737 625.095 33.0958 626.133 33.3326 627.231C33.4058 627.566 33.4839 627.934 33.562 628.299L37.4061 628.633L34.631 632.797C35.047 634.381 35.5471 635.922 36.1272 637.406C38.6045 643.614 41.8019 645.646 44.3695 647.276C46.1342 648.377 47.7865 649.425 48.5846 651.356Z" fill="#769AD0"/>
<path d="M50.7642 617.789C51.3671 620.008 51.7015 623.954 52.0554 628.131C52.5801 634.353 53.1757 641.405 54.9476 648.126C56.9002 655.56 59.6948 660.072 61.9354 663.693C62.4821 664.58 63.0118 665.433 63.4975 666.277H77.9539C76.4675 658.391 74.2708 651.343 71.5299 645.86C70.4704 643.804 69.3331 641.826 68.1226 639.933C66.563 637.416 65.0937 635.036 64.4445 632.569C63.8514 630.323 63.5219 626.421 63.1729 622.287C62.6603 616.236 62.0257 608.705 60.1634 601.871C57.6495 592.646 53.8615 588.044 50.8179 584.349C48.6896 581.762 46.6687 579.329 45.8925 576.316C45.4679 574.7 45.1359 571.918 44.7869 568.973C44.5648 567.116 44.3354 565.194 44.0547 563.163C42.7123 553.828 40.4302 545.447 37.516 538.787L34.9142 549.025L36.0589 535.707C34.0819 531.838 31.8706 528.709 29.4982 526.527C29.1199 526.192 28.766 525.857 28.417 525.579C27.8629 525.111 22.8399 519.742 20.8507 521.834C18.1025 524.716 16.8846 532.119 17.6143 538.569L22.7838 539.653L18.8616 544.095C18.9714 544.393 19.0837 544.681 19.2081 544.962C19.5491 545.738 19.9223 546.487 20.326 547.204C21.8929 549.966 23.4843 551.314 24.7632 552.399C25.0537 552.643 25.327 552.874 25.5687 553.098C29.1053 556.355 32.0927 563.876 33.3643 572.725C33.5498 574.014 33.7255 575.483 33.911 577.036C34.199 579.456 34.5261 582.21 34.9923 585.069L40.85 587.874L35.9686 590.029C36.1069 590.631 36.2541 591.233 36.4103 591.833C38.9121 601.372 42.7709 606.058 45.8706 609.827C47.955 612.384 49.9515 614.807 50.7642 617.789Z" fill="#5783C6"/>
<path d="M46.388 534.901C46.2757 539.54 46.1439 545.183 46.5588 551.194C49.5658 555.411 55.4382 563.658 54.767 562.771C54.1397 561.938 49.8099 559.424 47.274 558.012C48.7848 568.642 51.7893 576.38 54.2593 582.746C56.168 587.666 57.9717 592.312 58.3866 596.392C58.6941 599.424 58.4305 604.09 58.1425 609.023C57.7227 616.387 57.2492 624.707 58.1205 633.845C59.0822 643.949 61.4204 651.671 63.2998 657.876C64.0661 660.403 64.7886 662.789 65.3353 665.025C65.4354 665.437 65.5306 665.855 65.6233 666.277H79.7502C79.1405 660.011 78.1086 653.836 76.6676 647.832C75.7767 644.18 74.7736 640.87 73.8876 637.948C72.5818 633.637 71.3493 629.58 71.0295 626.21C70.7391 623.158 71.0002 618.545 71.2736 613.666C71.6812 606.513 72.1864 597.6 71.237 588.269C69.9532 575.647 66.5313 566.848 63.783 559.752C61.8573 554.799 60.0414 550.116 59.6582 546.029C59.4507 543.834 59.5337 540.45 59.6191 536.869C59.6753 534.61 59.7314 532.273 59.7339 529.756C59.7705 510.31 56.4657 491.186 50.8326 477.798L48.2381 480.649L49.5194 474.869C49.1948 474.2 48.8849 473.57 48.5822 472.968C48.0501 471.9 43.3957 461.019 40.8695 461.334C36.1223 461.92 33.1544 474.585 35.3681 485.071C35.6122 486.276 35.9124 487.47 36.2395 488.645C37.516 493.231 39.0488 496.297 40.2789 498.757C40.5547 499.312 40.8183 499.838 41.0477 500.323C44.411 507.412 46.4856 518.634 46.4661 529.609C46.4685 531.226 46.4344 533.01 46.388 534.901Z" fill="#1E5AB3"/>
<path d="M372.986 659.188H40.5522V666.28H372.986V659.188Z" fill="#5FC3F3"/>
<path opacity="0.8" d="M362.022 283.424C361.476 283.685 360.95 284.013 360.448 284.405C357.353 271.63 351.729 263.085 345.303 263.085C337.659 263.085 331.147 275.177 328.682 292.107C326.937 289.68 324.925 288.291 322.785 288.291C316.083 288.291 310.652 301.83 310.652 318.528C310.652 319.518 310.672 320.497 310.711 321.463H370.406C368.048 308.286 364.983 295.932 362.022 283.424Z" fill="#D9E4FF"/>
<path d="M74.8004 91.7455H68.1202V78.2237H62.6945V61.5724H68.1202V48.0505H74.8004V61.5724H80.2262V78.227H74.8004V91.7455ZM69.0159 89.5097H73.8974V75.9912H79.3231V63.8048H73.9047V50.283H69.0233V63.8048H63.5902V75.9912H69.0159V89.5097Z" fill="#1E5AB3"/>
<path d="M358.295 418.228H353.929V409.392H350.382V398.507H353.929V389.671H358.295V398.507H361.841V409.392H358.295V418.228ZM354.514 416.765H357.709V407.933H361.256V399.953H357.709V391.117H354.514V399.953H350.97V407.919H354.514V416.765Z" fill="#1E5AB3"/>
<path d="M89.3349 308.704H85.8667V301.676H83.0501V293.037H85.8667V286.008H89.3349V293.037H92.1515V301.686H89.3349V308.704ZM86.3329 307.543H88.8688V300.514H91.6854V294.188H88.8688V287.16H86.3329V294.188H83.5163V300.514H86.3329V307.543Z" fill="#1E5AB3"/>
<path d="M80.0236 474.213H77.722V469.571H75.8548V463.834H77.722V459.162H80.0236V463.821H81.8932V469.571H80.0236V474.213ZM78.032 473.443H79.7161V468.788H81.5832V464.59H79.7161V459.931H78.032V464.59H76.1624V468.788H78.032V473.443Z" fill="#1E5AB3"/>
<path d="M244.509 81.8284H241.04V74.7997H238.224V66.1611H241.04V59.1324H244.509V66.1611H247.325V74.8064H244.509V81.8284ZM241.507 80.667H244.045V73.6383H246.852V67.3125H244.045V60.2838H241.507V67.3125H238.69V73.6383H241.507V80.667Z" fill="#1E5AB3"/>
<path d="M318.982 358.069C317.364 358.069 316.053 354.786 316.053 350.749C316.053 346.713 317.371 343.429 318.982 343.429C320.593 343.429 321.911 346.713 321.911 350.749C321.911 354.786 320.603 358.069 318.982 358.069ZM318.982 345.287C317.762 345.287 316.786 347.737 316.786 350.749C316.786 353.762 317.762 356.212 318.982 356.212C320.203 356.212 321.179 353.762 321.179 350.749C321.179 347.737 320.193 345.287 318.982 345.287V345.287Z" fill="#769AD0"/>
<path d="M336.9 131.759C335.279 131.759 333.971 128.475 333.971 124.439C333.971 120.402 335.289 117.119 336.9 117.119C338.51 117.119 339.828 120.402 339.828 124.439C339.828 128.475 338.52 131.759 336.9 131.759ZM336.9 118.977C335.679 118.977 334.703 121.427 334.703 124.439C334.703 127.451 335.679 129.905 336.9 129.905C338.12 129.905 339.096 127.451 339.096 124.439C339.096 121.427 338.108 118.977 336.9 118.977Z" fill="#769AD0"/>
<path d="M185.638 159.09C184.062 159.09 182.78 155.894 182.78 151.965C182.78 148.035 184.062 144.839 185.638 144.839C187.215 144.839 188.499 148.035 188.499 151.965C188.499 155.894 187.215 159.09 185.638 159.09ZM185.638 146.646C184.462 146.646 183.505 149.033 183.505 151.965C183.505 154.897 184.462 157.296 185.638 157.296C186.815 157.296 187.774 154.913 187.774 151.978C187.774 149.043 186.81 146.646 185.638 146.646Z" fill="#5783C6"/>
<path d="M53.8493 445.442C52.0065 445.442 50.5055 441.7 50.5055 437.105C50.5055 432.51 52.0065 428.768 53.8493 428.768C55.692 428.768 57.2077 432.506 57.2077 437.105C57.2077 441.704 55.6945 445.442 53.8493 445.442ZM53.8493 430.883C52.4727 430.883 51.3549 433.674 51.3549 437.105C51.3549 440.536 52.4727 443.327 53.8493 443.327C55.2259 443.327 56.3461 440.536 56.3461 437.105C56.3461 433.674 55.2283 430.883 53.8493 430.883Z" fill="#1E5AB3"/>
<path d="M292.2 659.188L300.574 659.128C300.836 659.128 301.043 658.602 301.043 657.956C301.043 657.31 300.831 656.788 300.572 656.792L292.198 656.852C291.939 656.852 291.729 657.377 291.729 658.023C291.729 658.676 291.942 659.188 292.2 659.188Z" fill="white"/>
<path d="M300.606 649.693L300.923 656.189C300.962 656.989 300.782 657.719 300.548 657.719L292.339 657.779C292.127 657.779 291.915 657.444 291.802 656.828C291.657 655.853 291.736 654.84 292.029 653.93C292.762 651.363 295.124 650.7 296.315 648.538C296.324 648.518 296.336 648.501 296.35 648.489C296.365 648.476 296.381 648.469 296.398 648.468L300.177 648.441C300.389 648.437 300.572 648.97 300.606 649.693Z" fill="#141414"/>
<path d="M296.938 652.236C297.003 652.075 297.02 651.885 296.984 651.707C296.821 650.817 296.315 648.655 295.29 649.107C295.232 649.134 295.193 649.331 295.202 649.532C295.202 649.726 295.266 649.867 295.322 649.83C296.242 649.431 296.672 651.339 296.804 652.086C296.83 652.25 296.887 652.317 296.938 652.236Z" fill="white"/>
<path d="M296.086 653.08C296.151 652.917 296.168 652.726 296.132 652.547C295.969 651.66 295.463 649.495 294.438 649.95C294.38 649.977 294.341 650.171 294.351 650.375C294.351 650.573 294.414 650.71 294.473 650.677C295.39 650.278 295.82 652.186 295.952 652.929C295.978 653.093 296.037 653.153 296.086 653.08Z" fill="white"/>
<path d="M295.295 653.866C295.327 653.786 295.348 653.697 295.356 653.606C295.363 653.515 295.357 653.422 295.339 653.334C295.178 652.447 294.673 650.282 293.648 650.737C293.589 650.76 293.548 650.958 293.56 651.159C293.56 651.356 293.623 651.493 293.679 651.456C294.597 651.061 295.029 652.969 295.158 653.712C295.178 653.88 295.244 653.94 295.295 653.866Z" fill="white"/>
<path d="M136.887 451.935L130.7 437.878C130.605 437.624 130.553 437.344 130.548 437.058C130.542 436.772 130.584 436.489 130.669 436.228V436.228C130.844 435.753 131.14 435.719 131.332 436.154L137.52 450.212C137.615 450.466 137.667 450.746 137.672 451.032C137.678 451.317 137.636 451.601 137.551 451.862V451.862C137.376 452.337 137.08 452.371 136.887 451.935Z" fill="#1E5AB3"/>
<path d="M133.219 430.826L131.235 435.097C130.991 435.626 130.927 436.466 131.101 436.861L137.163 450.647C137.189 450.73 137.228 450.804 137.279 450.862C137.329 450.919 137.389 450.959 137.453 450.978C137.518 450.998 137.584 450.995 137.648 450.971C137.711 450.947 137.769 450.903 137.817 450.841C138.076 450.56 138.352 449.887 138.432 448.314C138.586 445.201 137.01 440.74 136.709 437.142C136.706 437.076 136.692 437.012 136.668 436.954L133.876 430.595C133.719 430.26 133.441 430.347 133.219 430.826Z" fill="#6890CC"/>
<path d="M135.252 438.852C135.243 438.768 135.249 438.682 135.267 438.601C135.286 438.52 135.317 438.446 135.36 438.384C135.721 437.995 136.678 437.242 137.312 439.291C137.329 439.369 137.333 439.45 137.324 439.53C137.316 439.611 137.295 439.687 137.263 439.756V439.756C137.202 439.883 137.129 439.89 137.093 439.776C136.519 437.945 135.687 438.635 135.384 438.969C135.328 439.043 135.269 438.993 135.252 438.852Z" fill="white"/>
<path d="M135.655 440.904C135.646 440.819 135.651 440.733 135.67 440.652C135.689 440.571 135.721 440.496 135.765 440.435C136.124 440.047 137.083 439.291 137.717 441.342C137.733 441.42 137.737 441.501 137.728 441.58C137.72 441.66 137.7 441.736 137.669 441.804V441.804C137.608 441.935 137.534 441.938 137.498 441.824C136.927 439.993 136.092 440.686 135.789 441.018C135.731 441.091 135.672 441.041 135.655 440.904Z" fill="white"/>
<path d="M136.043 442.812C136.034 442.727 136.039 442.641 136.057 442.56C136.076 442.479 136.108 442.405 136.15 442.343C136.512 441.955 137.468 441.198 138.103 443.25C138.119 443.327 138.123 443.409 138.115 443.488C138.107 443.568 138.086 443.644 138.054 443.712V443.712C137.996 443.842 137.92 443.846 137.886 443.732C137.312 441.901 136.48 442.594 136.177 442.925C136.106 442.999 136.043 442.949 136.043 442.812Z" fill="white"/>
</g>
</g>
<defs>
<clipPath id="clip0">
<rect width="411" height="823" fill="white"/>
</clipPath>
<clipPath id="clip1">
<rect width="422" height="853" fill="white" transform="translate(-6 46)"/>
</clipPath>
</defs>
</svg>
