<svg id="browser_1_" data-name="browser (1)" xmlns="http://www.w3.org/2000/svg" width="26.212" height="24.571" viewBox="0 0 26.212 24.571">
  <path id="Path_303" data-name="Path 303" d="M76.478,40.993v12.39a1.536,1.536,0,0,1-1.536,1.536H57.536A1.536,1.536,0,0,1,56,53.383V40.993h0l6.143-6.143,2-2a2.969,2.969,0,0,1,4.2,0l2,2,6.143,6.143Z" transform="translate(-53.133 -31.166)" fill="#ffc501"/>
  <path id="Path_304" data-name="Path 304" d="M193.741,303.983h3.072a1.741,1.741,0,0,1,1.741,1.741v7.27H192v-7.27A1.741,1.741,0,0,1,193.741,303.983Z" transform="translate(-182.171 -289.241)" fill="#f1f3f5"/>
  <path id="Path_307" data-name="Path 307" d="M25.972,27.312,15.785,17.125a3.793,3.793,0,0,0-5.358,0L.24,27.312A.819.819,0,1,0,1.4,28.47l.649-.649V38.234A2.358,2.358,0,0,0,4.4,40.589H21.809a2.358,2.358,0,0,0,2.355-2.355V27.821l.65.649a.819.819,0,0,0,1.158-1.158ZM10.649,38.95V32.5a.923.923,0,0,1,.922-.922h3.072a.923.923,0,0,1,.922.922V38.95Zm11.877-.717a.718.718,0,0,1-.717.717H17.2V32.5a2.563,2.563,0,0,0-2.56-2.56H11.57A2.563,2.563,0,0,0,9.01,32.5V38.95H4.4a.718.718,0,0,1-.717-.717V26.183l7.9-7.9a2.153,2.153,0,0,1,3.041,0l7.9,7.9Z" transform="translate(0 -16.017)" fill="#082649"/>
</svg>
